<svg xmlns="http://www.w3.org/2000/svg" height="128" width="128" viewBox="0 0 25 25" role="img" id="qr-code">
    <path fill="#FFFFFF" d="M0,0 h25v25H0z" shape-rendering="crispEdges"/>
    <path fill="#000000" d="M0 0h7v1H0zM8 0h2v1H8zM13 0h2v1H13zM18,0 h7v1H18zM0 1h1v1H0zM6 1h1v1H6zM8 1h2v1H8zM12 1h1v1H12zM18 1h1v1H18zM24,1 h1v1H24zM0 2h1v1H0zM2 2h3v1H2zM6 2h1v1H6zM8 2h1v1H8zM11 2h1v1H11zM13 2h2v1H13zM16 2h1v1H16zM18 2h1v1H18zM20 2h3v1H20zM24,2 h1v1H24zM0 3h1v1H0zM2 3h3v1H2zM6 3h1v1H6zM12 3h2v1H12zM16 3h1v1H16zM18 3h1v1H18zM20 3h3v1H20zM24,3 h1v1H24zM0 4h1v1H0zM2 4h3v1H2zM6 4h1v1H6zM8 4h3v1H8zM12 4h1v1H12zM14 4h1v1H14zM16 4h1v1H16zM18 4h1v1H18zM20 4h3v1H20zM24,4 h1v1H24zM0 5h1v1H0zM6 5h1v1H6zM11 5h2v1H11zM14 5h1v1H14zM18 5h1v1H18zM24,5 h1v1H24zM0 6h7v1H0zM8 6h1v1H8zM10 6h1v1H10zM12 6h1v1H12zM14 6h1v1H14zM16 6h1v1H16zM18,6 h7v1H18zM9 7h2v1H9zM13 7h1v1H13zM0 8h1v1H0zM3 8h6v1H3zM10 8h1v1H10zM12 8h1v1H12zM15 8h3v1H15zM20 8h1v1H20zM22,8 h3v1H22zM0 9h6v1H0zM9 9h1v1H9zM11 9h5v1H11zM17 9h1v1H17zM19 9h5v1H19zM2 10h3v1H2zM6 10h3v1H6zM12 10h2v1H12zM15 10h1v1H15zM18 10h2v1H18zM21 10h1v1H21zM24,10 h1v1H24zM0 11h1v1H0zM10 11h1v1H10zM12 11h1v1H12zM18 11h2v1H18zM21,11 h4v1H21zM1 12h2v1H1zM4 12h1v1H4zM6 12h1v1H6zM8 12h5v1H8zM16 12h1v1H16zM18 12h2v1H18zM24,12 h1v1H24zM0 13h1v1H0zM2 13h4v1H2zM9 13h2v1H9zM13 13h4v1H13zM20 13h1v1H20zM23 13h1v1H23zM0 14h4v1H0zM6 14h1v1H6zM11 14h6v1H11zM20,14 h5v1H20zM0 15h1v1H0zM2 15h2v1H2zM7 15h2v1H7zM10 15h2v1H10zM14 15h2v1H14zM17 15h3v1H17zM21 15h2v1H21zM24,15 h1v1H24zM0 16h1v1H0zM2 16h1v1H2zM5 16h3v1H5zM9 16h2v1H9zM13 16h1v1H13zM16 16h5v1H16zM22 16h2v1H22zM8 17h1v1H8zM10 17h3v1H10zM16 17h1v1H16zM20 17h1v1H20zM22 17h2v1H22zM0 18h7v1H0zM8 18h1v1H8zM11 18h1v1H11zM13 18h1v1H13zM16 18h1v1H16zM18 18h1v1H18zM20 18h1v1H20zM24,18 h1v1H24zM0 19h1v1H0zM6 19h1v1H6zM8 19h1v1H8zM10 19h1v1H10zM12 19h2v1H12zM16 19h1v1H16zM20 19h1v1H20zM23 19h1v1H23zM0 20h1v1H0zM2 20h3v1H2zM6 20h1v1H6zM8 20h1v1H8zM12 20h1v1H12zM14 20h7v1H14zM23,20 h2v1H23zM0 21h1v1H0zM2 21h3v1H2zM6 21h1v1H6zM8 21h1v1H8zM10 21h1v1H10zM15 21h1v1H15zM17 21h2v1H17zM23,21 h2v1H23zM0 22h1v1H0zM2 22h3v1H2zM6 22h1v1H6zM9 22h2v1H9zM12 22h2v1H12zM16 22h2v1H16zM20,22 h5v1H20zM0 23h1v1H0zM6 23h1v1H6zM18 23h3v1H18zM22,23 h3v1H22zM0 24h7v1H0zM8 24h2v1H8zM12 24h3v1H12zM16 24h3v1H16zM21 24h1v1H21zM24,24 h1v1H24z" shape-rendering="crispEdges"/>
</svg>
